#Comment line ignore any data following # character 
#Hierarchical Translation and Rotation (.htr) file 
[Header]	
#Header keywords are followed by a single value 
FileType HTR		#Single word string
DataType HTRS		#Translation followed by rotation and scale data
FileVersion 1		#integer
NumSegments 84		#integer
NumFrames 2		#integer
DataFrameRate 30		#integer, data frame rate in this file
EulerRotationOrder ZYX
CalibrationUnits mm
RotationUnits Degrees
GlobalAxisofGravity Y
BoneLengthAxis Y
ScaleFactor 1.00
[SegmentNames&Hierarchy]
#CHILD	PARENT
MASTER GLOBAL
root MASTER
chest root
L_mid_tent01 root
R_mid_tent01 root
spine01 root
Bip01_Neck chest
L_humerus chest
R_humerus chest
weapon_bone chest
Bip01_Head Bip01_Neck
eye_left_bone Bip01_Head
eye_right_bone Bip01_Head
L_forearm L_humerus
L_front_hand L_forearm
L_weapon_bone L_forearm
L_front_hand01_01 L_front_hand
L_front_hand02_01 L_front_hand
L_front_hand03_01 L_front_hand
L_front_hand01_02 L_front_hand01_01
L_front_hand02_02 L_front_hand02_01
L_front_hand03_02 L_front_hand03_01
R_forearm R_humerus
R_front_hand R_forearm
R_weapon_bone R_forearm
R_front_hand01_01 R_front_hand
R_front_hand02_01 R_front_hand
R_front_hand03_01 R_front_hand
R_front_hand01_02 R_front_hand01_01
R_front_hand02_02 R_front_hand02_01
R_front_hand03_02 R_front_hand03_01
null_rope01_connect L_mid_tent01
Rope1_Seg01 null_rope01_connect
Rope1_Seg02 Rope1_Seg01
Rope1_Seg03 Rope1_Seg02
Rope1_Seg04 Rope1_Seg03
Rope1_Seg05 Rope1_Seg04
Rope1_Seg06 Rope1_Seg05
Rope1_Seg07 Rope1_Seg06
Rope1_Seg09 Rope1_Seg07
L_mid_hand01 Rope1_Seg09
L_mid_hand02 Rope1_Seg09
L_mid_hand03 Rope1_Seg09
null_rope02_connect R_mid_tent01
Rope2_Seg01 null_rope02_connect
Rope2_Seg02 Rope2_Seg01
Rope2_Seg03 Rope2_Seg02
Rope2_Seg04 Rope2_Seg03
Rope2_Seg05 Rope2_Seg04
Rope2_Seg06 Rope2_Seg05
Rope2_Seg07 Rope2_Seg06
Rope2_Seg09 Rope2_Seg07
R_mid_hand01 Rope2_Seg09
R_mid_hand02 Rope2_Seg09
R_mid_hand03 Rope2_Seg09
spine02 spine01
spine03 spine02
pelvis spine03
null_rope03_connect pelvis
null_rope04_connect pelvis
Rope3_Seg01 null_rope03_connect
Rope3_Seg02 Rope3_Seg01
Rope3_Seg03 Rope3_Seg02
Rope3_Seg04 Rope3_Seg03
Rope3_Seg05 Rope3_Seg04
Rope3_Seg06 Rope3_Seg05
Rope3_Seg07 Rope3_Seg06
Rope3_Seg08 Rope3_Seg07
Rope3_Seg09 Rope3_Seg08
R_rear_hand01 Rope3_Seg09
R_rear_hand02 Rope3_Seg09
R_rear_hand03 Rope3_Seg09
Rope4_Seg01 null_rope04_connect
Rope4_Seg02 Rope4_Seg01
Rope4_Seg03 Rope4_Seg02
Rope4_Seg04 Rope4_Seg03
Rope4_Seg05 Rope4_Seg04
Rope4_Seg06 Rope4_Seg05
Rope4_Seg07 Rope4_Seg06
Rope4_Seg08 Rope4_Seg07
Rope4_Seg09 Rope4_Seg08
L_rear_hand01 Rope4_Seg09
L_rear_hand02 Rope4_Seg09
L_rear_hand03 Rope4_Seg09
[BasePosition]
#SegmentName Tx, Ty, Tz, Rx, Ry, Rz, BoneLength
MASTER 0.000000 0.000000 0.000000 -90.000000 0.000000 0.000000 10.000000 
root 0.000000 0.000000 0.000000 0.000000 0.000000 0.000000 10.000000 
chest 0.000000 0.000000 0.000000 0.000000 0.000000 0.000000 10.000000 
L_mid_tent01 0.000000 0.000000 0.000000 0.000000 0.000000 0.000000 10.000000 
R_mid_tent01 0.000000 0.000000 0.000000 0.000000 0.000000 0.000000 10.000000 
spine01 0.000000 0.000000 0.000000 0.000000 0.000000 0.000000 10.000000 
Bip01_Neck 0.000000 0.000000 0.000000 0.000000 0.000000 0.000000 10.000000 
L_humerus 0.000000 0.000000 0.000000 0.000000 0.000000 0.000000 10.000000 
R_humerus 0.000000 0.000000 0.000000 0.000000 0.000000 0.000000 10.000000 
weapon_bone 0.000000 0.000000 0.000000 0.000000 0.000000 0.000000 10.000000 
Bip01_Head 0.000000 0.000000 0.000000 0.000000 0.000000 0.000000 10.000000 
eye_left_bone 0.000000 0.000000 0.000000 0.000000 0.000000 0.000000 10.000000 
eye_right_bone 0.000000 0.000000 0.000000 0.000000 0.000000 0.000000 10.000000 
L_forearm 0.000000 0.000000 0.000000 0.000000 0.000000 0.000000 10.000000 
L_front_hand 0.000000 0.000000 0.000000 0.000000 0.000000 0.000000 10.000000 
L_weapon_bone 0.000000 0.000000 0.000000 0.000000 0.000000 0.000000 10.000000 
L_front_hand01_01 0.000000 0.000000 0.000000 0.000000 0.000000 0.000000 10.000000 
L_front_hand02_01 0.000000 0.000000 0.000000 0.000000 0.000000 0.000000 10.000000 
L_front_hand03_01 0.000000 0.000000 0.000000 0.000000 0.000000 0.000000 10.000000 
L_front_hand01_02 0.000000 0.000000 0.000000 0.000000 0.000000 0.000000 10.000000 
L_front_hand02_02 0.000000 0.000000 0.000000 0.000000 0.000000 0.000000 10.000000 
L_front_hand03_02 0.000000 0.000000 0.000000 0.000000 0.000000 0.000000 10.000000 
R_forearm 0.000000 0.000000 0.000000 0.000000 0.000000 0.000000 10.000000 
R_front_hand 0.000000 0.000000 0.000000 0.000000 0.000000 0.000000 10.000000 
R_weapon_bone 0.000000 0.000000 0.000000 0.000000 0.000000 0.000000 10.000000 
R_front_hand01_01 0.000000 0.000000 0.000000 0.000000 0.000000 0.000000 10.000000 
R_front_hand02_01 0.000000 0.000000 0.000000 0.000000 0.000000 0.000000 10.000000 
R_front_hand03_01 0.000000 0.000000 0.000000 0.000000 0.000000 0.000000 10.000000 
R_front_hand01_02 0.000000 0.000000 0.000000 0.000000 0.000000 0.000000 10.000000 
R_front_hand02_02 0.000000 0.000000 0.000000 0.000000 0.000000 0.000000 10.000000 
R_front_hand03_02 0.000000 0.000000 0.000000 0.000000 0.000000 0.000000 10.000000 
null_rope01_connect 0.000000 0.000000 0.000000 0.000000 0.000000 0.000000 10.000000 
Rope1_Seg01 0.000000 0.000000 0.000000 0.000000 0.000000 0.000000 10.000000 
Rope1_Seg02 0.000000 0.000000 0.000000 0.000000 0.000000 0.000000 10.000000 
Rope1_Seg03 0.000000 0.000000 0.000000 0.000000 0.000000 0.000000 10.000000 
Rope1_Seg04 0.000000 0.000000 0.000000 0.000000 0.000000 0.000000 10.000000 
Rope1_Seg05 0.000000 0.000000 0.000000 0.000000 0.000000 0.000000 10.000000 
Rope1_Seg06 0.000000 0.000000 0.000000 0.000000 0.000000 0.000000 10.000000 
Rope1_Seg07 0.000000 0.000000 0.000000 0.000000 0.000000 0.000000 10.000000 
Rope1_Seg09 0.000000 0.000000 0.000000 0.000000 0.000000 0.000000 10.000000 
L_mid_hand01 0.000000 0.000000 0.000000 0.000000 0.000000 0.000000 10.000000 
L_mid_hand02 0.000000 0.000000 0.000000 0.000000 0.000000 0.000000 10.000000 
L_mid_hand03 0.000000 0.000000 0.000000 0.000000 0.000000 0.000000 10.000000 
null_rope02_connect 0.000000 0.000000 0.000000 0.000000 0.000000 0.000000 10.000000 
Rope2_Seg01 0.000000 0.000000 0.000000 0.000000 0.000000 0.000000 10.000000 
Rope2_Seg02 0.000000 0.000000 0.000000 0.000000 0.000000 0.000000 10.000000 
Rope2_Seg03 0.000000 0.000000 0.000000 0.000000 0.000000 0.000000 10.000000 
Rope2_Seg04 0.000000 0.000000 0.000000 0.000000 0.000000 0.000000 10.000000 
Rope2_Seg05 0.000000 0.000000 0.000000 0.000000 0.000000 0.000000 10.000000 
Rope2_Seg06 0.000000 0.000000 0.000000 0.000000 0.000000 0.000000 10.000000 
Rope2_Seg07 0.000000 0.000000 0.000000 0.000000 0.000000 0.000000 10.000000 
Rope2_Seg09 0.000000 0.000000 0.000000 0.000000 0.000000 0.000000 10.000000 
R_mid_hand01 0.000000 0.000000 0.000000 0.000000 0.000000 0.000000 10.000000 
R_mid_hand02 0.000000 0.000000 0.000000 0.000000 0.000000 0.000000 10.000000 
R_mid_hand03 0.000000 0.000000 0.000000 0.000000 0.000000 0.000000 10.000000 
spine02 0.000000 0.000000 0.000000 0.000000 0.000000 0.000000 10.000000 
spine03 0.000000 0.000000 0.000000 0.000000 0.000000 0.000000 10.000000 
pelvis 0.000000 0.000000 0.000000 0.000000 0.000000 0.000000 10.000000 
null_rope03_connect 0.000000 0.000000 0.000000 0.000000 0.000000 0.000000 10.000000 
null_rope04_connect 0.000000 0.000000 0.000000 0.000000 0.000000 0.000000 10.000000 
Rope3_Seg01 0.000000 0.000000 0.000000 0.000000 0.000000 0.000000 10.000000 
Rope3_Seg02 0.000000 0.000000 0.000000 0.000000 0.000000 0.000000 10.000000 
Rope3_Seg03 0.000000 0.000000 0.000000 0.000000 0.000000 0.000000 10.000000 
Rope3_Seg04 0.000000 0.000000 0.000000 0.000000 0.000000 0.000000 10.000000 
Rope3_Seg05 0.000000 0.000000 0.000000 0.000000 0.000000 0.000000 10.000000 
Rope3_Seg06 0.000000 0.000000 0.000000 0.000000 0.000000 0.000000 10.000000 
Rope3_Seg07 0.000000 0.000000 0.000000 0.000000 0.000000 0.000000 10.000000 
Rope3_Seg08 0.000000 0.000000 0.000000 0.000000 0.000000 0.000000 10.000000 
Rope3_Seg09 0.000000 0.000000 0.000000 0.000000 0.000000 0.000000 10.000000 
R_rear_hand01 0.000000 0.000000 0.000000 0.000000 0.000000 0.000000 10.000000 
R_rear_hand02 0.000000 0.000000 0.000000 0.000000 0.000000 0.000000 10.000000 
R_rear_hand03 0.000000 0.000000 0.000000 0.000000 0.000000 0.000000 10.000000 
Rope4_Seg01 0.000000 0.000000 0.000000 0.000000 0.000000 0.000000 10.000000 
Rope4_Seg02 0.000000 0.000000 0.000000 0.000000 0.000000 0.000000 10.000000 
Rope4_Seg03 0.000000 0.000000 0.000000 0.000000 0.000000 0.000000 10.000000 
Rope4_Seg04 0.000000 0.000000 0.000000 0.000000 0.000000 0.000000 10.000000 
Rope4_Seg05 0.000000 0.000000 0.000000 0.000000 0.000000 0.000000 10.000000 
Rope4_Seg06 0.000000 0.000000 0.000000 0.000000 0.000000 0.000000 10.000000 
Rope4_Seg07 0.000000 0.000000 0.000000 0.000000 0.000000 0.000000 10.000000 
Rope4_Seg08 0.000000 0.000000 0.000000 0.000000 0.000000 0.000000 10.000000 
Rope4_Seg09 0.000000 0.000000 0.000000 0.000000 0.000000 0.000000 10.000000 
L_rear_hand01 0.000000 0.000000 0.000000 0.000000 0.000000 0.000000 10.000000 
L_rear_hand02 0.000000 0.000000 0.000000 0.000000 0.000000 0.000000 10.000000 
L_rear_hand03 0.000000 0.000000 0.000000 0.000000 0.000000 0.000000 10.000000 
#Beginning of Data. Separated by tabs
#Fr	Tx	Ty	Tz	Rx	Ry	Rz	SF
[MASTER]
3 -116.856171 -0.000018 0.000000 0.001660 0.001660 0.001660 116.856171
4 -219.967651 -0.000033 0.000000 0.001660 0.001660 0.001660 219.967651
[root]
3 -16.502295 -62.822109 1432.380981 -75.233521 -27.676033 -90.149101 1433.853027
4 -16.502304 -62.822117 1365.756714 -60.383266 -27.678423 -90.150269 1367.300415
[chest]
3 -84.512650 -34.090519 0.000000 13.343531 0.648075 -179.552414 91.129311
4 -84.512650 -34.090519 0.000000 30.914089 0.239759 179.089615 91.129311
[L_mid_tent01]
3 27.378197 22.132416 -250.423843 -23.373045 18.737135 36.794228 252.886368
4 27.417543 22.109909 -250.676788 -28.566494 8.031593 23.673632 253.139114
[R_mid_tent01]
3 23.228794 24.509907 226.238495 -167.764603 -49.147419 45.828403 228.744751
4 23.228794 24.509907 226.238495 -155.772797 -45.259197 29.647505 228.744751
[spine01]
3 -0.361383 -0.195265 0.000000 -0.212536 0.631264 3.329443 0.410763
4 -0.361383 -0.195265 0.000000 0.676368 0.667461 -1.349595 0.410763
[Bip01_Neck]
3 165.484543 71.581718 0.000119 175.896118 1.177290 24.871183 180.302734
4 165.484543 71.581718 0.000119 175.896118 1.177290 24.871183 180.302734
[L_humerus]
3 -13.983130 -135.272980 -120.471481 170.940796 81.564224 -99.189163 181.680161
4 -13.983130 -135.272980 -120.471481 170.940796 81.564224 -99.189163 181.680161
[R_humerus]
3 -13.983309 -135.273102 125.287651 -159.666046 -68.957870 -101.166077 184.909012
4 -13.983309 -135.273102 125.287651 -159.666046 -68.957870 -101.166077 184.909012
[weapon_bone]
3 235.964890 -300.705902 0.000000 0.000000 -89.951546 -128.212341 382.234833
4 235.964890 -300.705902 0.000000 0.000000 -89.951546 -128.212341 382.234833
[Bip01_Head]
3 261.355835 108.959366 -2.864233 2.248029 5.843377 -62.458344 283.173492
4 261.355835 108.959381 -2.864226 2.248029 5.843377 -62.458344 283.173492
[eye_left_bone]
3 -24.626970 125.451866 -64.772606 0.000000 -90.000000 -99.840431 143.318359
4 -24.626970 125.451866 -64.772606 0.000000 -90.000000 -99.840431 143.318359
[eye_right_bone]
3 -24.626970 125.451866 64.327362 0.000000 -89.960434 80.159386 143.117676
4 -24.626970 125.451866 64.327362 0.000000 -89.960434 80.159386 143.117676
[L_forearm]
3 322.776093 0.000000 -0.000119 0.000471 0.002300 -66.859398 322.776093
4 322.776093 0.000000 -0.000119 0.000471 0.002300 -66.859398 322.776093
[L_front_hand]
3 241.149185 -0.042021 -3.300071 -178.667953 -1.835447 -27.422350 241.171753
4 241.149185 -0.042021 -3.300071 -178.667953 -1.835447 -27.422350 241.171753
[L_weapon_bone]
3 156.183838 0.000000 0.000000 0.002028 0.001182 29.501106 156.183838
4 156.183838 0.000000 0.000000 0.002126 0.000995 39.830204 156.183838
[L_front_hand01_01]
3 86.095154 20.947098 -0.655860 -0.345630 -0.486632 72.985954 88.609184
4 86.095154 20.947098 -0.655860 -0.358019 -0.483663 74.277168 88.609184
[L_front_hand02_01]
3 86.935165 -11.437475 24.513514 150.809296 -58.778587 -57.192558 91.046425
4 86.935165 -11.437475 24.513514 152.710815 -59.393673 -59.407352 91.046425
[L_front_hand03_01]
3 86.637497 -14.123976 -20.424902 -150.571686 56.997833 -58.742687 90.126129
4 86.637497 -14.123976 -20.424902 -152.345215 57.619305 -60.852303 90.126129
[L_front_hand01_02]
3 71.020905 -0.000179 0.000030 0.000334 -0.002323 -106.379379 71.020905
4 71.020905 -0.000179 0.000030 0.001534 0.001777 -8.378850 71.020905
[L_front_hand02_02]
3 71.020927 -0.000119 0.000060 0.000334 -0.002323 -106.379379 71.020927
4 71.020927 -0.000119 0.000060 0.001534 0.001777 -8.378850 71.020927
[L_front_hand03_02]
3 71.020905 -0.000060 0.000060 0.000334 -0.002323 -106.379379 71.020905
4 71.020905 -0.000060 0.000060 0.001534 0.001777 -8.378850 71.020905
[R_forearm]
3 322.776428 -0.000060 0.000030 0.199694 -0.075621 -69.903069 322.776428
4 322.776428 -0.000060 0.000030 0.199694 -0.075621 -69.903076 322.776428
[R_front_hand]
3 238.847015 -0.006795 2.210259 -1.531694 0.790216 -51.443054 238.857239
4 238.847015 -0.006795 2.210259 -1.531694 0.790216 -51.443054 238.857239
[R_weapon_bone]
3 155.664093 0.002503 -0.000030 0.003037 0.002080 -122.425827 155.664078
4 155.664093 0.002503 -0.000030 0.002838 0.002344 -132.705109 155.664078
[R_front_hand01_01]
3 87.624611 14.231146 22.918642 -151.019943 -58.847031 57.544685 91.683487
4 87.624611 14.231146 22.918642 -154.633499 -59.950619 61.746044 91.683487
[R_front_hand02_01]
3 89.356956 14.367283 -19.491137 151.211227 57.208401 59.740421 92.579636
4 89.356956 14.367283 -19.491137 154.602661 58.302849 63.744389 92.579636
[R_front_hand03_01]
3 87.286232 -22.307278 -0.143439 0.142368 -0.428417 -73.368439 90.091743
4 87.286232 -22.307278 -0.143439 0.162155 -0.423168 -75.767921 90.091743
[R_front_hand01_02]
3 71.020905 0.000060 0.000119 0.002323 -0.000334 106.381386 71.020905
4 71.020905 0.000060 0.000119 0.001777 0.001534 8.377220 71.020905
[R_front_hand02_02]
3 71.020844 -0.000030 -0.000119 0.002323 -0.000334 106.381386 71.020836
4 71.020844 -0.000030 -0.000119 0.001777 0.001534 8.377220 71.020836
[R_front_hand03_02]
3 71.020905 0.000000 0.000030 0.002323 -0.000334 106.381386 71.020905
4 71.020905 0.000000 0.000030 0.001777 0.001534 8.377220 71.020905
[null_rope01_connect]
3 328.732483 0.000000 -0.000238 -152.158310 -75.071129 -130.877457 328.732483
4 328.732483 0.000000 -0.000238 113.987167 -85.559708 -20.825182 328.732483
[Rope1_Seg01]
3 0.000000 0.000000 0.000000 74.463562 74.310272 88.421013 0.000000
4 0.000000 0.000000 0.000000 -1.777347 71.249985 4.797707 0.000000
[Rope1_Seg02]
3 139.999863 -0.000179 0.000000 -0.719293 1.227801 6.689802 139.999863
4 139.999863 -0.000179 0.000000 -1.644118 5.946302 8.065641 139.999863
[Rope1_Seg03]
3 139.999924 0.000060 -0.000060 -0.151575 2.138913 12.802428 139.999924
4 139.999924 0.000060 -0.000060 -1.014374 12.201283 18.145519 139.999924
[Rope1_Seg04]
3 139.999924 -0.000060 -0.000119 5.524823 4.120867 28.654289 139.999924
4 139.999924 -0.000060 -0.000119 6.659557 19.868233 34.944569 139.999924
[Rope1_Seg05]
3 139.999832 0.000119 -0.000060 20.168789 8.815377 34.654396 139.999832
4 139.999832 0.000119 -0.000060 8.380405 13.857648 25.893154 139.999832
[Rope1_Seg06]
3 139.999954 0.000119 -0.000060 6.760257 4.998160 7.561912 139.999954
4 139.999954 0.000119 -0.000060 2.829075 5.063810 7.708918 139.999954
[Rope1_Seg07]
3 139.999985 0.000060 0.000000 3.209483 2.643349 3.238506 139.999985
4 139.999985 0.000060 0.000000 1.376488 2.602967 3.437188 139.999985
[Rope1_Seg09]
3 121.602913 0.000119 -0.000089 -89.793175 -1.359789 0.847147 121.602913
4 121.602913 0.000119 -0.000089 -89.793175 -1.359789 0.847147 121.602913
[L_mid_hand01]
3 103.859421 1.038730 8.195221 111.431305 -47.263851 -16.612017 104.187431
4 103.859421 1.038730 8.195221 111.431305 -47.263851 -16.612017 104.187431
[L_mid_hand02]
3 105.572853 -4.139662 -10.864139 -150.709808 35.166882 -45.161087 106.211075
4 105.572853 -4.139662 -10.864139 -150.709808 35.166882 -45.161087 106.211075
[L_mid_hand03]
3 104.641464 17.579376 -3.913581 -12.649597 13.975001 50.985863 106.179977
4 104.641464 17.579376 -3.913581 -12.649596 13.974999 50.985855 106.179977
[null_rope02_connect]
3 328.732849 0.000179 -0.000119 -128.450974 26.561844 -18.215246 328.732849
4 328.732849 0.000179 -0.000119 -130.674637 13.023534 -36.000332 328.732849
[Rope2_Seg01]
3 -0.000073 0.000134 0.000153 -74.433311 39.174076 9.858332 0.000216
4 -0.000072 0.000134 0.000153 -59.197647 19.197710 -0.853343 0.000215
[Rope2_Seg02]
3 139.999741 -0.000060 -0.000119 -5.481697 -8.978150 12.089104 139.999756
4 139.999741 -0.000060 -0.000119 -13.188007 -1.099552 15.062765 139.999756
[Rope2_Seg03]
3 140.000107 0.000030 0.000000 -6.053756 -16.751242 20.847700 140.000107
4 140.000107 0.000030 0.000000 -15.634573 -9.604201 32.270088 140.000107
[Rope2_Seg04]
3 139.999802 0.000000 -0.000060 -2.376788 -23.582945 25.145788 139.999802
4 139.999802 0.000000 -0.000060 -5.938067 -18.216789 34.702488 139.999802
[Rope2_Seg05]
3 139.999985 -0.000060 0.000119 2.507051 -10.880220 9.853555 139.999985
4 139.999985 -0.000060 0.000119 3.194316 -7.602413 14.527001 139.999985
[Rope2_Seg06]
3 139.999893 -0.000030 -0.000119 2.149959 -3.839007 4.162249 139.999893
4 139.999893 -0.000030 -0.000119 2.454485 -2.713958 6.042587 139.999893
[Rope2_Seg07]
3 139.999893 0.000060 -0.000060 1.513218 -2.018698 2.384313 139.999893
4 139.999893 0.000060 -0.000060 1.625051 -1.347100 3.336775 139.999893
[Rope2_Seg09]
3 121.338966 0.000089 -0.000060 33.793236 -1.359788 -0.847141 121.338966
4 121.338966 0.000089 -0.000060 33.793236 -1.359788 -0.847141 121.338966
[R_mid_hand01]
3 104.680779 11.144459 -10.335981 -34.269650 35.095989 42.885235 105.778534
4 104.680779 11.144459 -10.335981 -34.269650 35.095989 42.885235 105.778534
[R_mid_hand02]
3 104.070427 2.443552 8.231699 68.449066 -47.537163 16.779839 104.424065
4 104.070427 2.443552 8.231699 68.449066 -47.537163 16.779839 104.424065
[R_mid_hand03]
3 106.028137 -11.221827 -5.996406 -171.106766 13.128626 -52.726494 106.788818
4 106.028137 -11.221827 -5.996406 -171.106766 13.128626 -52.726494 106.788818
[spine02]
3 129.756927 0.001550 0.000119 -0.245322 -4.052060 -4.355547 129.756927
4 129.756927 0.001550 0.000119 -0.245322 -4.052060 -4.355547 129.756927
[spine03]
3 78.613754 0.087421 -4.898816 0.369659 4.260735 -4.885721 78.766281
4 78.613754 0.087415 -4.898823 0.369659 4.260734 -4.885720 78.766296
[pelvis]
3 169.435242 0.051022 0.000000 -0.010031 -0.194709 -1.851389 169.435257
4 169.435242 0.051022 0.000000 -0.010044 -0.196355 -1.828306 169.435257
[null_rope03_connect]
3 -1.257226 -2.466202 137.391083 24.952684 -75.078560 100.429405 137.418976
4 -1.257226 -2.466202 137.391083 26.324696 -59.306664 103.668388 137.418976
[null_rope04_connect]
3 -1.259640 -2.480268 -137.844437 24.952684 -75.078560 100.429405 137.872513
4 -1.259640 -2.480268 -137.844437 26.324696 -59.306664 103.668388 137.872513
[Rope3_Seg01]
3 0.000007 0.000000 0.000140 148.349258 -74.645027 -10.200028 0.000141
4 0.000020 0.000000 0.000134 37.909004 -75.701546 93.186775 0.000136
[Rope3_Seg02]
3 139.999924 -0.000119 0.000060 -25.429468 17.996679 -26.722033 139.999924
4 139.999924 -0.000119 0.000060 -9.509038 14.451692 -15.701687 139.999924
[Rope3_Seg03]
3 139.999924 -0.000119 0.000119 -17.674131 21.700533 -11.273029 139.999924
4 139.999924 -0.000119 0.000119 -9.084408 15.949706 -11.340420 139.999924
[Rope3_Seg04]
3 139.999924 0.000119 0.000000 -8.869480 14.635371 -6.072090 139.999924
4 139.999924 0.000119 0.000000 -5.586502 11.921180 -6.653598 139.999924
[Rope3_Seg05]
3 139.999924 -0.000238 0.000060 -12.487870 21.321661 -11.767886 139.999924
4 139.999924 -0.000238 0.000060 -9.802597 16.503635 -14.521913 139.999924
[Rope3_Seg06]
3 139.999893 -0.000119 -0.000060 -6.140076 17.409510 -5.710529 139.999893
4 139.999893 -0.000119 -0.000060 -9.241917 17.401186 -12.631343 139.999893
[Rope3_Seg07]
3 139.999771 0.000060 -0.000119 -1.548610 8.932420 -1.617638 139.999771
4 139.999771 0.000060 -0.000119 -3.284369 9.504439 -4.512329 139.999771
[Rope3_Seg08]
3 139.999985 -0.000060 0.000000 -0.298237 4.917336 -0.758645 139.999985
4 139.999985 -0.000060 0.000000 -1.227374 5.278398 -2.169205 139.999985
[Rope3_Seg09]
3 90.185997 -0.000179 -0.000060 89.793228 -1.359877 -0.847183 90.185997
4 90.185997 -0.000179 -0.000060 89.793228 -1.359877 -0.847183 90.185997
[R_rear_hand01]
3 103.366196 -6.073594 -10.757982 -166.970291 21.129854 -46.704182 104.101845
4 103.366196 -6.073594 -10.757982 -166.970291 21.129850 -46.704182 104.101845
[R_rear_hand02]
3 100.509819 12.039542 -7.992327 -28.148869 27.804199 44.102722 101.543350
4 100.509819 12.039542 -7.992327 -28.148869 27.804199 44.102722 101.543350
[R_rear_hand03]
3 101.539970 5.215704 5.435467 81.628395 -47.127728 10.016968 101.819031
4 101.539970 5.215704 5.435467 81.628380 -47.127724 10.016966 101.819031
[Rope4_Seg01]
3 -0.000018 -0.000070 -0.000153 63.778858 -23.763000 -145.863403 0.000169
4 -0.000018 -0.000067 -0.000153 48.866787 -10.008288 -156.748398 0.000168
[Rope4_Seg02]
3 139.999985 0.000060 0.000119 77.652092 -48.120262 4.855672 139.999985
4 139.999985 0.000060 0.000119 111.866493 -34.667728 -13.926793 139.999985
[Rope4_Seg03]
3 139.999924 0.000000 -0.000238 30.918415 0.389052 26.022373 139.999924
4 139.999924 0.000000 -0.000238 50.050110 2.153445 26.927933 139.999924
[Rope4_Seg04]
3 139.999985 0.000000 0.000119 7.984307 3.179533 11.036739 139.999985
4 139.999985 0.000000 0.000119 4.872667 8.575678 8.301118 139.999985
[Rope4_Seg05]
3 139.999802 -0.000060 -0.000119 8.196056 1.945156 14.015682 139.999802
4 139.999802 -0.000060 -0.000119 6.830806 3.556339 9.662550 139.999802
[Rope4_Seg06]
3 139.999924 0.000000 0.000060 5.424752 3.335597 13.339854 139.999924
4 139.999924 0.000000 0.000060 5.866255 3.159086 10.268066 139.999924
[Rope4_Seg07]
3 139.999802 0.000000 0.000000 1.982362 3.103456 7.225089 139.999802
4 139.999802 0.000000 0.000000 2.204843 3.362496 5.521952 139.999802
[Rope4_Seg08]
3 139.999924 0.000000 0.000119 -0.662429 2.051390 4.378471 139.999924
4 139.999924 0.000000 0.000119 -0.476916 2.271812 3.316854 139.999924
[Rope4_Seg09]
3 90.185791 0.000060 0.000060 -135.617828 2.228885 0.850567 90.185791
4 90.185791 0.000060 0.000060 -135.617828 2.228885 0.850567 90.185791
[L_rear_hand01]
3 101.696655 -8.392275 -7.654577 -27.705481 -28.251705 134.947800 102.329041
4 101.696655 -8.392275 -7.654577 -27.705481 -28.251705 134.947800 102.329041
[L_rear_hand02]
3 102.726799 -1.568258 5.773216 81.477219 48.065086 169.775513 102.900848
4 102.726799 -1.568258 5.773216 81.477219 48.065086 169.775513 102.900848
[L_rear_hand03]
3 104.552910 9.721220 -10.420293 -167.330078 -21.338425 -132.303940 105.519653
4 104.552910 9.721220 -10.420293 -167.330078 -21.338425 -132.303940 105.519653
